<svg width="77" height="77" viewBox="0 0 77 77" fill="none" xmlns="http://www.w3.org/2000/svg">
<rect width="77" height="77" rx="38.5" fill="#19161E"/>
<path d="M22.725 55.1083C23.2083 55.5917 23.6917 55.8333 24.4167 55.8333C25.1417 55.8333 25.625 55.5917 26.1083 55.1083L38.9167 42.3L51.725 55.1083C52.2083 55.5917 52.9333 55.8333 53.4167 55.8333C53.9 55.8333 54.625 55.5917 55.1083 55.1083C56.075 54.1417 56.075 52.6917 55.1083 51.725L42.3 38.9167L55.1083 26.1083C56.075 25.1417 56.075 23.6917 55.1083 22.725C54.1417 21.7583 52.6917 21.7583 51.725 22.725L38.9167 35.5333L26.1083 22.725C25.1417 21.7583 23.6917 21.7583 22.725 22.725C21.7583 23.6917 21.7583 25.1417 22.725 26.1083L35.5333 38.9167L22.725 51.725C21.7583 52.6917 21.7583 54.1417 22.725 55.1083Z" fill="#9439EF"/>
</svg>
