<svg id="visual" viewBox="0 0 1440 1080" width="1440" height="1080" xmlns="http://www.w3.org/2000/svg" xmlns:xlink="http://www.w3.org/1999/xlink" version="1.1"><path d="M0 440L60 465.5C120 491 240 542 360 573.2C480 604.3 600 615.7 720 589C840 562.3 960 497.7 1080 471.7C1200 445.7 1320 458.3 1380 464.7L1440 471L1440 1081L1380 1081C1320 1081 1200 1081 1080 1081C960 1081 840 1081 720 1081C600 1081 480 1081 360 1081C240 1081 120 1081 60 1081L0 1081Z" fill="#9439EF" stroke-linecap="round" stroke-linejoin="miter"></path></svg>