<svg width="50" height="50" viewBox="0 0 50 50" fill="none" xmlns="http://www.w3.org/2000/svg">
<rect width="50" height="50" rx="25" fill="#19161E"/>
<path d="M11.8223 17.5H34.375C35.4121 17.5 36.25 16.6621 36.25 15.625C36.25 14.5879 35.4121 13.75 34.375 13.75H11.8223C10.8396 13.75 10 14.5896 10 15.5723C10 16.5549 10.8396 17.5 11.8223 17.5ZM38.125 23.125H15.5723C14.5896 23.125 13.75 23.9629 13.75 25C13.75 26.0371 14.5896 26.875 15.5723 26.875H38.0723C39.1621 26.875 40 26.0371 40 25C40 23.9629 39.1621 23.125 38.125 23.125ZM34.375 32.5H11.8223C10.8396 32.5 10 33.3379 10 34.3223C10 35.3066 10.8396 36.25 11.8223 36.25H34.375C35.4121 36.25 36.25 35.4121 36.25 34.375C36.25 33.3379 35.4121 32.5 34.375 32.5Z" fill="#9439EF"/>
</svg>
