<svg width="44" height="44" viewBox="0 0 44 44" fill="none" xmlns="http://www.w3.org/2000/svg">
<path d="M22 29.3334C26.0443 29.3334 29.3333 26.0425 29.3333 22V11C29.3333 6.95569 26.0443 3.66669 22 3.66669C17.9557 3.66669 14.6667 6.95569 14.6667 11V22C14.6667 26.0425 17.9557 29.3334 22 29.3334Z" fill="#9439EF"/>
<path d="M34.8333 22V18.3333C34.8333 17.3213 34.0138 16.5 33 16.5C31.9862 16.5 31.1667 17.3213 31.1667 18.3333V22C31.1667 27.0545 27.0545 31.1667 22 31.1667C16.9455 31.1667 12.8333 27.0545 12.8333 22V18.3333C12.8333 17.3213 12.0138 16.5 11 16.5C9.98617 16.5 9.16667 17.3213 9.16667 18.3333V22C9.16667 28.4533 13.9572 33.792 20.1667 34.6867V36.6667H14.6667C13.6528 36.6667 12.8333 37.4862 12.8333 38.5C12.8333 39.5138 13.6528 40.3333 14.6667 40.3333H29.3333C30.3472 40.3333 31.1667 39.5138 31.1667 38.5C31.1667 37.4862 30.3472 36.6667 29.3333 36.6667H23.8333V34.6867C30.0428 33.792 34.8333 28.4533 34.8333 22Z" fill="#9439EF"/>
</svg>
