<svg width="44" height="44" viewBox="0 0 44 44" fill="none" xmlns="http://www.w3.org/2000/svg">
<path d="M35.75 15.125C35.7558 14.7615 35.6174 14.4105 35.365 14.1487L24.365 3.14874C24.2349 3.01964 24.0803 2.91786 23.9103 2.84939C23.7403 2.78091 23.5583 2.74711 23.375 2.74999H12.375C11.281 2.74999 10.2318 3.18458 9.45818 3.95817C8.6846 4.73176 8.25 5.78097 8.25 6.87499V37.125C8.25 38.219 8.6846 39.2682 9.45818 40.0418C10.2318 40.8154 11.281 41.25 12.375 41.25H31.625C32.719 41.25 33.7682 40.8154 34.5418 40.0418C35.3154 39.2682 35.75 38.219 35.75 37.125V15.125ZM24.75 7.43874L31.0613 13.75H26.125C25.7603 13.75 25.4106 13.6051 25.1527 13.3473C24.8949 13.0894 24.75 12.7397 24.75 12.375V7.43874ZM31.625 38.5H12.375C12.0103 38.5 11.6606 38.3551 11.4027 38.0973C11.1449 37.8394 11 37.4897 11 37.125V6.87499C11 6.51031 11.1449 6.16058 11.4027 5.90271C11.6606 5.64485 12.0103 5.49999 12.375 5.49999H22V12.375C22 13.469 22.4346 14.5182 23.2082 15.2918C23.9818 16.0654 25.031 16.5 26.125 16.5H33V37.125C33 37.4897 32.8551 37.8394 32.5973 38.0973C32.3394 38.3551 31.9897 38.5 31.625 38.5Z" fill="#9439EF"/>
<path d="M15.125 22H20.625C20.9897 22 21.3394 21.8551 21.5973 21.5973C21.8551 21.3394 22 20.9897 22 20.625C22 20.2603 21.8551 19.9106 21.5973 19.6527C21.3394 19.3949 20.9897 19.25 20.625 19.25H15.125C14.7603 19.25 14.4106 19.3949 14.1527 19.6527C13.8949 19.9106 13.75 20.2603 13.75 20.625C13.75 20.9897 13.8949 21.3394 14.1527 21.5973C14.4106 21.8551 14.7603 22 15.125 22Z" fill="#9439EF"/>
<path d="M28.875 24.75H15.125C14.7603 24.75 14.4106 24.8949 14.1527 25.1527C13.8949 25.4106 13.75 25.7603 13.75 26.125C13.75 26.4897 13.8949 26.8394 14.1527 27.0973C14.4106 27.3551 14.7603 27.5 15.125 27.5H28.875C29.2397 27.5 29.5894 27.3551 29.8473 27.0973C30.1051 26.8394 30.25 26.4897 30.25 26.125C30.25 25.7603 30.1051 25.4106 29.8473 25.1527C29.5894 24.8949 29.2397 24.75 28.875 24.75Z" fill="#9439EF"/>
<path d="M28.875 30.25H15.125C14.7603 30.25 14.4106 30.3949 14.1527 30.6527C13.8949 30.9106 13.75 31.2603 13.75 31.625C13.75 31.9897 13.8949 32.3394 14.1527 32.5973C14.4106 32.8551 14.7603 33 15.125 33H28.875C29.2397 33 29.5894 32.8551 29.8473 32.5973C30.1051 32.3394 30.25 31.9897 30.25 31.625C30.25 31.2603 30.1051 30.9106 29.8473 30.6527C29.5894 30.3949 29.2397 30.25 28.875 30.25Z" fill="#9439EF"/>
</svg>
