<svg width="40" height="40" viewBox="0 0 40 40" fill="none" xmlns="http://www.w3.org/2000/svg">
<path d="M20.0001 28.3333C24.6025 28.3333 28.3334 24.6023 28.3334 20C28.3334 15.3976 24.6025 11.6666 20.0001 11.6666C15.3977 11.6666 11.6667 15.3976 11.6667 20C11.6667 24.6023 15.3977 28.3333 20.0001 28.3333Z" fill="#9439EF"/>
<path d="M35.0001 21.6667H33.3334C32.8914 21.6667 32.4675 21.4911 32.1549 21.1786C31.8423 20.866 31.6667 20.4421 31.6667 20C31.6667 19.558 31.8423 19.1341 32.1549 18.8215C32.4675 18.509 32.8914 18.3334 33.3334 18.3334H35.0001C35.4421 18.3334 35.866 18.509 36.1786 18.8215C36.4912 19.1341 36.6667 19.558 36.6667 20C36.6667 20.4421 36.4912 20.866 36.1786 21.1786C35.866 21.4911 35.4421 21.6667 35.0001 21.6667Z" fill="#9439EF"/>
<path d="M6.66659 21.6667H4.99992C4.55789 21.6667 4.13397 21.4911 3.82141 21.1786C3.50885 20.866 3.33325 20.4421 3.33325 20C3.33325 19.558 3.50885 19.1341 3.82141 18.8215C4.13397 18.509 4.55789 18.3334 4.99992 18.3334H6.66659C7.10861 18.3334 7.53254 18.509 7.8451 18.8215C8.15766 19.1341 8.33325 19.558 8.33325 20C8.33325 20.4421 8.15766 20.866 7.8451 21.1786C7.53254 21.4911 7.10861 21.6667 6.66659 21.6667Z" fill="#9439EF"/>
<path d="M29.4333 12.2333C29.0193 12.2145 28.6271 12.0422 28.3333 11.7499C28.0229 11.4377 27.8486 11.0152 27.8486 10.5749C27.8486 10.1346 28.0229 9.71221 28.3333 9.39994L29.5166 8.21661C29.666 8.04214 29.8499 7.90044 30.0567 7.8004C30.2634 7.70036 30.4887 7.64414 30.7182 7.63528C30.9477 7.62641 31.1766 7.66509 31.3905 7.74888C31.6044 7.83267 31.7986 7.95976 31.961 8.12219C32.1235 8.28461 32.2506 8.47886 32.3343 8.69273C32.4181 8.90661 32.4568 9.1355 32.4479 9.36503C32.4391 9.59456 32.3829 9.81978 32.2828 10.0266C32.1828 10.2333 32.0411 10.4172 31.8666 10.5666L30.6833 11.7499C30.5197 11.9126 30.3242 12.0396 30.109 12.1228C29.8938 12.206 29.6637 12.2436 29.4333 12.2333Z" fill="#9439EF"/>
<path d="M9.39992 32.2667C9.18058 32.268 8.96314 32.2259 8.76008 32.143C8.55701 32.0601 8.37232 31.9378 8.21659 31.7834C7.90617 31.4711 7.73193 31.0487 7.73193 30.6084C7.73193 30.1681 7.90617 29.7457 8.21659 29.4334L9.39992 28.3334C9.71876 28.0603 10.1289 27.9177 10.5483 27.9339C10.9678 27.9501 11.3657 28.124 11.6625 28.4208C11.9594 28.7176 12.1332 29.1155 12.1494 29.535C12.1656 29.9544 12.023 30.3645 11.7499 30.6834L10.5666 31.8667C10.2432 32.1443 9.82565 32.2875 9.39992 32.2667Z" fill="#9439EF"/>
<path d="M19.9999 8.33337C19.5579 8.33337 19.134 8.15778 18.8214 7.84522C18.5088 7.53266 18.3333 7.10873 18.3333 6.66671V5.00004C18.3333 4.55801 18.5088 4.13409 18.8214 3.82153C19.134 3.50897 19.5579 3.33337 19.9999 3.33337C20.4419 3.33337 20.8659 3.50897 21.1784 3.82153C21.491 4.13409 21.6666 4.55801 21.6666 5.00004V6.66671C21.6666 7.10873 21.491 7.53266 21.1784 7.84522C20.8659 8.15778 20.4419 8.33337 19.9999 8.33337Z" fill="#9439EF"/>
<path d="M19.9999 36.6666C19.5579 36.6666 19.134 36.491 18.8214 36.1785C18.5088 35.8659 18.3333 35.442 18.3333 35V33.3333C18.3333 32.8913 18.5088 32.4673 18.8214 32.1548C19.134 31.8422 19.5579 31.6666 19.9999 31.6666C20.4419 31.6666 20.8659 31.8422 21.1784 32.1548C21.491 32.4673 21.6666 32.8913 21.6666 33.3333V35C21.6666 35.442 21.491 35.8659 21.1784 36.1785C20.8659 36.491 20.4419 36.6666 19.9999 36.6666Z" fill="#9439EF"/>
<path d="M10.5667 12.2333C10.1294 12.2315 9.71045 12.0579 9.40001 11.75L8.21668 10.5667C7.94364 10.2478 7.80096 9.83772 7.81716 9.41826C7.83336 8.9988 8.00725 8.6009 8.30407 8.30407C8.6009 8.00725 8.9988 7.83336 9.41826 7.81716C9.83772 7.80096 10.2478 7.94364 10.5667 8.21668L11.75 9.40001C12.0604 9.71228 12.2347 10.1347 12.2347 10.575C12.2347 11.0153 12.0604 11.4377 11.75 11.75C11.5943 11.9045 11.4096 12.0267 11.2065 12.1096C11.0035 12.1926 10.786 12.2346 10.5667 12.2333Z" fill="#9439EF"/>
<path d="M30.6001 32.2667C30.1629 32.2648 29.7439 32.0912 29.4334 31.7833L28.3334 30.6C28.1573 30.2834 28.0892 29.9179 28.1393 29.5591C28.1895 29.2003 28.3552 28.8675 28.6114 28.6113C28.8677 28.3551 29.2004 28.1894 29.5592 28.1392C29.9181 28.0891 30.2835 28.1572 30.6001 28.3333L31.7834 29.5167C32.0939 29.8289 32.2681 30.2514 32.2681 30.6917C32.2681 31.132 32.0939 31.5544 31.7834 31.8667C31.4558 32.1484 31.0315 32.2918 30.6001 32.2667Z" fill="#9439EF"/>
</svg>
