<svg width="45" height="47" viewBox="0 0 45 47" fill="none" xmlns="http://www.w3.org/2000/svg">
<path d="M40.4298 35.5361C40.0637 35.5564 39.7178 35.5564 39.3517 35.5564C33.4321 35.5564 27.8584 33.2578 23.6679 29.0673C19.4774 24.8768 17.1788 19.3031 17.1788 13.3835C17.1788 10.0067 17.9314 6.75197 19.335 3.80236C19.9656 2.50047 20.7183 1.2596 21.593 0.100098C20.047 0.262835 18.562 0.588307 17.1177 1.03583C7.59764 4.04647 0.70166 12.936 0.70166 23.4528C0.70166 36.4311 11.2185 46.948 24.1968 46.948C31.3776 46.948 37.7853 43.7339 42.0979 38.6688C43.0743 37.5093 43.9693 36.248 44.7017 34.9055C43.3184 35.2513 41.8944 35.475 40.4298 35.5361Z" fill="#9439EF"/>
</svg>
