<svg width="30" height="31" viewBox="0 0 30 31" fill="none" xmlns="http://www.w3.org/2000/svg">
<path d="M13.125 26.0352V4.95898C13.125 4.56641 12.8086 4.25 12.4102 4.25H8.21484C7.81641 4.25 7.5 4.56641 7.5 4.95898V26.0352C7.5 26.4277 7.81641 26.75 8.21484 26.75H12.4102C12.8086 26.75 13.125 26.4336 13.125 26.0352Z" fill="#9439EF"/>
<path d="M21.7852 4.25H17.5898C17.1973 4.25 16.875 4.56641 16.875 4.95898V26.0352C16.875 26.4277 17.1914 26.75 17.5898 26.75H21.7852C22.1777 26.75 22.5 26.4336 22.5 26.0352V4.95898C22.5 4.56641 22.1836 4.25 21.7852 4.25Z" fill="#9439EF"/>
</svg>
