<svg width="38" height="38" viewBox="0 0 38 38" fill="none" xmlns="http://www.w3.org/2000/svg">
<rect x="1" y="1" width="36" height="36" rx="18" stroke="#9439EF" stroke-width="2"/>
<path d="M32 12.3088C31.1177 12.7009 30.1682 12.9655 29.1719 13.0839C30.1891 12.4749 30.9691 11.5103 31.3369 10.3595C30.3855 10.9242 29.3322 11.3339 28.2102 11.5551C27.3123 10.5983 26.0325 10 24.6163 10C21.8973 10 19.6928 12.2045 19.6928 14.9239C19.6928 15.3093 19.7362 15.6849 19.8205 16.0459C15.7282 15.8403 12.0996 13.8804 9.67103 10.9013C9.24718 11.6282 9.00457 12.4739 9.00457 13.3771C9.00457 15.0852 9.8737 16.5925 11.1949 17.4753C10.3882 17.4495 9.62865 17.2278 8.96462 16.859C8.96413 16.8795 8.96413 16.9004 8.96413 16.9214C8.96413 19.3066 10.6615 21.2963 12.9142 21.7493C12.5011 21.8614 12.066 21.9218 11.6168 21.9218C11.2992 21.9218 10.9908 21.8911 10.6902 21.8331C11.3172 23.7892 13.1354 25.2132 15.2897 25.2527C13.6045 26.5734 11.4819 27.3607 9.17459 27.3607C8.77754 27.3607 8.38536 27.3373 8 27.2915C10.1796 28.6892 12.7676 29.5038 15.5479 29.5038C24.6051 29.5038 29.5573 22.0012 29.5573 15.4944C29.5573 15.281 29.5529 15.0681 29.5436 14.8567C30.5053 14.1639 31.3404 13.2963 32 12.3088Z" fill="#9439EF"/>
</svg>
