<svg width="38" height="38" viewBox="0 0 38 38" fill="none" xmlns="http://www.w3.org/2000/svg">
<rect x="1" y="1" width="36" height="36" rx="18" stroke="#9439EF" stroke-width="2"/>
<path d="M8 12.225H10.2803V26.175H8V12.225ZM8 12.225H10.2803V26.175H8V12.225ZM14.5892 18.65C14.3926 16.5125 14.2904 15.3375 14.2904 15.1C14.1961 13.9625 14.1096 12.975 14.0152 12.125H11.0351V26.075H13.0323V16.8625L13.8737 26.075H15.2969L16.0832 16.6625V26.075H18.0804V12.125H15.116L14.5892 18.65ZM14.5892 18.65C14.3926 16.5125 14.2904 15.3375 14.2904 15.1C14.1961 13.9625 14.1096 12.975 14.0152 12.125H11.0351V26.075H13.0323V16.8625L13.8737 26.075H15.2969L16.0832 16.6625V26.075H18.0804V12.125H15.116L14.5892 18.65ZM21.8547 15.025C21.8893 15.4392 21.9025 15.8573 21.894 16.275V21.6875C21.9211 22.2642 21.8839 22.844 21.7839 23.4C21.7053 23.6 21.5008 23.7125 21.1784 23.7125V14.5125C21.3501 14.4886 21.5228 14.5315 21.6817 14.6375C21.7269 14.6774 21.7659 14.733 21.7958 14.8C21.8258 14.8671 21.8459 14.944 21.8547 15.025ZM22.8847 25.9375C23.1343 25.8586 23.3686 25.6873 23.5688 25.4375C23.7628 25.1857 23.8984 24.8382 23.9541 24.45C24.0586 23.6276 24.1008 22.7883 24.0799 21.95V17.0375C24.091 16.152 24.0621 15.2664 23.9934 14.3875C23.9362 13.8872 23.7844 13.4265 23.5582 13.0669C23.332 12.7073 23.0422 12.466 22.7275 12.375C22.0256 12.1614 21.3106 12.0775 20.5966 12.125H18.8982V26.075H21.6581C22.0685 26.077 22.4785 26.031 22.8847 25.9375ZM21.8547 15.025C21.8893 15.4392 21.9025 15.8573 21.894 16.275V21.6875C21.9211 22.2642 21.8839 22.844 21.7839 23.4C21.7053 23.6 21.5008 23.7125 21.1784 23.7125V14.5125C21.3501 14.4886 21.5228 14.5315 21.6817 14.6375C21.7269 14.6774 21.7659 14.733 21.7958 14.8C21.8258 14.8671 21.8459 14.944 21.8547 15.025ZM22.8847 25.9375C23.1343 25.8586 23.3686 25.6873 23.5688 25.4375C23.7628 25.1857 23.8984 24.8382 23.9541 24.45C24.0586 23.6276 24.1008 22.7883 24.0799 21.95V17.0375C24.091 16.152 24.0621 15.2664 23.9934 14.3875C23.9362 13.8872 23.7844 13.4265 23.5582 13.0669C23.332 12.7073 23.0422 12.466 22.7275 12.375C22.0256 12.1614 21.3106 12.0775 20.5966 12.125H18.8982V26.075H21.6581C22.0685 26.077 22.4785 26.031 22.8847 25.9375ZM27.7519 23.85C27.7126 24.025 27.5318 24.1125 27.3902 24.1125C27.3336 24.1229 27.2763 24.1043 27.2268 24.0593C27.1773 24.0144 27.1381 23.9454 27.115 23.8625C27.0563 23.4783 27.0351 23.082 27.0521 22.6875V19C27.038 18.6103 27.0565 18.2194 27.1072 17.8375C27.1291 17.7567 27.1672 17.6896 27.2155 17.6466C27.2638 17.6037 27.3197 17.5873 27.3745 17.6C27.5082 17.6 27.6969 17.6875 27.7441 17.8625C27.8057 18.2417 27.8296 18.634 27.8148 19.025V22.6C27.8191 23.0189 27.798 23.4375 27.7519 23.85ZM24.8505 25.95H26.8713C26.9578 25.425 27.0049 25.125 27.0128 25.0625C27.1766 25.4162 27.3932 25.6996 27.643 25.8872C27.8928 26.0749 28.168 26.1609 28.4439 26.1375C28.7779 26.1493 29.1057 25.9917 29.3796 25.6875C29.6175 25.4359 29.7927 25.0601 29.8749 24.625C29.9602 24.0096 29.9972 23.3798 29.985 22.75V18.8375C30.005 18.288 30.005 17.737 29.985 17.1875C29.959 16.9021 29.8888 16.6315 29.7806 16.4C29.6519 16.1173 29.4744 15.9002 29.2695 15.775C29.0197 15.6159 28.7522 15.5394 28.4832 15.55C28.2136 15.5547 27.9469 15.6395 27.6969 15.8C27.462 15.974 27.255 16.2305 27.0914 16.55V12H24.8898L24.8505 25.95ZM27.7519 23.85C27.7126 24.025 27.5318 24.1125 27.3902 24.1125C27.3336 24.1229 27.2763 24.1043 27.2268 24.0593C27.1773 24.0144 27.1381 23.9454 27.115 23.8625C27.0563 23.4783 27.0351 23.082 27.0521 22.6875V19C27.038 18.6103 27.0565 18.2194 27.1072 17.8375C27.1291 17.7567 27.1672 17.6896 27.2155 17.6466C27.2638 17.6037 27.3197 17.5873 27.3745 17.6C27.5082 17.6 27.6969 17.6875 27.7441 17.8625C27.8057 18.2417 27.8296 18.634 27.8148 19.025V22.6C27.8191 23.0189 27.798 23.4375 27.7519 23.85ZM24.8505 25.95H26.8713C26.9578 25.425 27.0049 25.125 27.0128 25.0625C27.1766 25.4162 27.3932 25.6996 27.643 25.8872C27.8928 26.0749 28.168 26.1609 28.4439 26.1375C28.7779 26.1493 29.1057 25.9917 29.3796 25.6875C29.6175 25.4359 29.7927 25.0601 29.8749 24.625C29.9602 24.0096 29.9972 23.3798 29.985 22.75V18.8375C30.005 18.288 30.005 17.737 29.985 17.1875C29.959 16.9021 29.8888 16.6315 29.7806 16.4C29.6519 16.1173 29.4744 15.9002 29.2695 15.775C29.0197 15.6159 28.7522 15.5394 28.4832 15.55C28.2136 15.5547 27.9469 15.6395 27.6969 15.8C27.462 15.974 27.255 16.2305 27.0914 16.55V12H24.8898L24.8505 25.95Z" fill="#9439EF"/>
</svg>
