<svg width="44" height="47" viewBox="0 0 44 47" fill="none" xmlns="http://www.w3.org/2000/svg">
<path d="M29.7902 28.095C27.6508 26.1932 24.8879 25.1427 22.0254 25.1427C19.1629 25.1427 16.3999 26.1932 14.2605 28.095C14.0797 28.2514 13.9318 28.4422 13.8254 28.6563C13.7189 28.8703 13.6561 29.1034 13.6405 29.342C13.6249 29.5805 13.6569 29.8198 13.7345 30.0459C13.8122 30.272 13.934 30.4804 14.0929 30.659C14.2518 30.8377 14.4445 30.983 14.66 31.0865C14.8755 31.19 15.1095 31.2496 15.3482 31.262C15.5869 31.2743 15.8258 31.2391 16.0508 31.1583C16.2758 31.0776 16.4825 30.953 16.659 30.7917C18.1376 29.4775 20.0471 28.7516 22.0254 28.7516C24.0036 28.7516 25.9131 29.4775 27.3917 30.7917C27.7496 31.1098 28.2191 31.2726 28.697 31.2445C29.175 31.2164 29.6221 30.9996 29.9402 30.6417C30.2583 30.2839 30.4212 29.8144 30.393 29.3364C30.3649 28.8585 30.1481 28.4113 29.7902 28.0933V28.095Z" fill="#9439EF"/>
<path d="M22.0241 17.7309C17.1787 17.7242 12.5132 19.5658 8.97876 22.8803C8.79981 23.0406 8.65466 23.235 8.55184 23.4521C8.44901 23.6693 8.39057 23.9047 8.37995 24.1447C8.36933 24.3848 8.40674 24.6245 8.48998 24.8498C8.57323 25.0752 8.70063 25.2817 8.86472 25.4572C9.02882 25.6326 9.22629 25.7736 9.44557 25.8717C9.66486 25.9699 9.90153 26.0233 10.1417 26.0288C10.3819 26.0342 10.6208 25.9917 10.8443 25.9036C11.0678 25.8156 11.2715 25.6838 11.4434 25.516C14.3133 22.8329 18.0953 21.3403 22.0241 21.3403C25.9528 21.3403 29.7348 22.8329 32.6047 25.516C32.7766 25.6838 32.9803 25.8156 33.2039 25.9036C33.4274 25.9917 33.6662 26.0342 33.9064 26.0288C34.1466 26.0233 34.3833 25.9699 34.6026 25.8717C34.8218 25.7736 35.0193 25.6326 35.1834 25.4572C35.3475 25.2817 35.4749 25.0752 35.5582 24.8498C35.6414 24.6245 35.6788 24.3848 35.6682 24.1447C35.6576 23.9047 35.5991 23.6693 35.4963 23.4521C35.3935 23.235 35.2483 23.0406 35.0694 22.8803C31.535 19.5658 26.8694 17.7242 22.0241 17.7309Z" fill="#9439EF"/>
<path d="M39.7032 17.0571C34.8376 12.7159 28.5448 10.3167 22.0241 10.3167C15.5034 10.3167 9.21058 12.7159 4.34503 17.0571C4.16217 17.2133 4.01237 17.4045 3.90444 17.6194C3.79651 17.8343 3.73263 18.0687 3.71654 18.3086C3.70045 18.5486 3.73248 18.7893 3.81075 19.0167C3.88903 19.2441 4.01196 19.4536 4.17233 19.6328C4.3327 19.812 4.52728 19.9574 4.74462 20.0603C4.96196 20.1633 5.19769 20.2217 5.43795 20.2323C5.67822 20.2429 5.91816 20.2053 6.1437 20.1218C6.36924 20.0383 6.57581 19.9106 6.75128 19.7461C10.955 15.997 16.391 13.9251 22.0237 13.9251C27.6564 13.9251 33.0923 15.997 37.296 19.7461C37.6529 20.0652 38.1218 20.2295 38.5997 20.2028C39.0777 20.1762 39.5254 19.9607 39.8445 19.6039C40.1636 19.2471 40.3279 18.7781 40.3012 18.3002C40.2745 17.8223 40.0591 17.3745 39.7023 17.0554L39.7032 17.0571Z" fill="#9439EF"/>
<path d="M22.0241 38.5029C23.5429 38.5029 24.7741 37.2717 24.7741 35.7529C24.7741 34.2341 23.5429 33.0029 22.0241 33.0029C20.5053 33.0029 19.2741 34.2341 19.2741 35.7529C19.2741 37.2717 20.5053 38.5029 22.0241 38.5029Z" fill="#9439EF"/>
</svg>
